<?xml version="1.0" encoding="utf-8"?>
<!-- Generator: Adobe Illustrator 23.0.3, SVG Export Plug-In . SVG Version: 6.00 Build 0)  -->
<svg version="1.1" id="Ebene_1" xmlns="http://www.w3.org/2000/svg" xmlns:xlink="http://www.w3.org/1999/xlink" x="0px" y="0px"
	 viewBox="0 0 1068 301" style="enable-background:new 0 0 1068 301;" xml:space="preserve">
<style type="text/css">
	.st0{fill:#FFFFFF;}
</style>
<g id="Gruppe_2" transform="translate(-850 -668)">
	<g id="Gruppe_1" transform="translate(850 668)">
		<path id="Pfad_1" class="st0" d="M374.01,286.85c-1.41-1.64-2.77-3.33-4.23-4.93c-10.23-11.14-20.46-22.28-30.7-33.41
			c-0.59-0.68-0.92-1.54-0.95-2.44c-0.05-36.52-0.05-73.04,0-109.57c-0.01-0.85,0.27-1.67,0.79-2.34
			c11.23-12.45,22.5-24.87,33.8-37.27c0.15-0.16,0.27-0.35,0.49-0.64l38.53,39.04l-20.08,11.98l-12.97-12.99
			c-2.91,2.99-5.72,5.83-8.44,8.76c-0.37,0.58-0.54,1.27-0.49,1.96c-0.03,17.93-0.03,35.86-0.02,53.8c0,12.94-0.01,25.88-0.02,38.83
			c-0.08,1.03,0.33,2.04,1.1,2.73c2.6,2.43,5.13,4.95,7.84,7.58l21.64-17.17l8.82,22.02c0.32-0.32,0.62-0.67,0.89-1.03
			c3.7-5.48,5.72-11.91,5.83-18.52c-0.07-23.03-0.07-46.06,0-69.1c0.14-1.09-0.48-2.13-1.5-2.54c-5.1-2.64-10.15-5.4-15.22-8.11
			c-0.47-0.25-0.92-0.53-1.62-0.95c17.24-11.04,35.09-20.59,52.73-30.77l45.86,49.56l-29.53,28.34c0.49,0.25,0.83,0.45,1.2,0.62
			c5.72,2.63,11.42,5.3,17.17,7.86c0.94,0.3,1.53,1.24,1.39,2.23c-0.04,9.98-0.02,19.96-0.03,29.94c0.28,3.11,1.16,6.14,2.58,8.93
			c1.93-2.13,3.29-4.71,3.96-7.51c1.71-7.08,3.36-14.17,4.86-21.3c3.74-17.73,7.43-35.47,11.05-53.23c0.59-2.89,0.91-5.83,0.95-8.77
			c-0.08-2.81-1.5-5.41-3.81-6.99c-1.45-1.16-2.98-2.23-4.61-3.41l51.07-28.78l0.45,0.36c-0.24,1.31-0.45,2.63-0.74,3.92
			c-1.7,8.24-1.39,16.77,0.9,24.87c2.77,10.7,5.31,21.46,8.02,32.17c0.52,1.67,1.13,3.31,1.84,4.91c0.36,0.95,0.95,1.23,2.03,1.09
			c5.54-0.7,11.09-1.27,16.85-1.94c0,3.72,0.03,7.31-0.06,10.92c0,0.32-0.78,0.78-1.27,0.91c-3.22,0.87-6.49,1.59-9.69,2.52
			c-3.65,1.05-3.68,1.15-2.72,4.75c3.73,14.7,8.4,29.14,13.99,43.23c0.5,1.21,1.11,2.38,1.68,3.56c0.12,0.17,0.26,0.32,0.41,0.45
			c1.67-2.4,2.75-5.15,3.14-8.05c0.31-1.56,0.45-3.14,0.44-4.73c0.03-24.13,0.04-48.26,0.05-72.39c0.19-1.19-0.59-2.32-1.77-2.58
			c-5.9-2.2-11.73-4.55-17.92-6.97c18.1-13.99,36.95-26.52,55.77-39.51l16.89,17.62v-5.48h76.59v33.89
			c-2.02-1.41-3.96-2.94-6.06-4.21c-1.67-1.3-3.61-2.23-5.68-2.72c-4.66-0.4-9.38-0.13-14.18-0.13c-0.03,0.58-0.07,1.11-0.07,1.65
			c0,24.84,0,49.68,0,74.53c0,0.77,0.06,1.53,0.18,2.29c1.19,7.17,4.18,13.92,8.7,19.61c1.32,1.7,2.89,3.21,4.43,4.89h-51.35
			c0.09-0.19,0.19-0.37,0.32-0.54c7.28-6.88,11.25-16.56,10.88-26.57c0.03-24.51,0.03-49.03,0-73.54v-2.44c-3.39,0-6.55,0.05-9.72,0
			c-2.82-0.1-5.59,0.71-7.9,2.33c-1.95,1.38-3.73,2.99-5.72,4.61l-14.74-13.63c-2.92,2.07-5.75,4.13-8.64,6.09
			c-0.8,0.47-1.26,1.36-1.19,2.28c0.05,7.63,0.03,15.26,0.03,22.87c0,0.52,0.05,1.05,0.1,1.75h24.73v27.86
			c-0.47-0.38-0.77-0.6-1.05-0.85c-2.77-2.56-6.45-3.91-10.22-3.74c-2.63,0.12-5.26,0.02-7.9,0.02h-5.6
			c-0.03,0.52-0.05,0.84-0.05,1.16c0,11.35,0,22.7,0,34.06c0,0.71,0.06,1.42,0.17,2.13c1.06,5.47,3.77,10.49,7.78,14.36
			c0.56,0.5,1.17,0.94,1.82,1.32l-0.43,0.5h-82.55c-0.02-0.16-0.04-0.22-0.03-0.26c0.55-1.25,1.11-2.5,1.64-3.76
			c3.57-8.53,5.95-17.17,3.15-26.5c-1.69-5.63-3.13-11.35-4.74-17.25c-7.45,4.15-14.46,9.03-20.94,14.58
			c-2.07,1.96-3.89,4.15-5.43,6.55c-3.56,5.23-3.12,12.21,1.05,16.96c1.85,2.3,4,4.36,6.04,6.48c1.03,1.07,2.16,2.04,3.37,3.18
			c-0.17,0.07-0.34,0.13-0.52,0.17c-19.25,0.01-38.5,0.01-57.75,0c-0.53-0.02-1.05-0.21-1.46-0.55
			c-6.33-5.51-10.02-13.45-10.17-21.84c-0.18-4.05-0.07-8.12,0-12.17c0.11-0.98-0.38-1.92-1.24-2.4c-4.05-2.61-8.04-5.32-12.05-8
			c-0.44-0.29-0.9-0.54-1.65-0.99v2.21c0,8.01,0.12,16.02-0.05,24.02c-0.12,3.97,1.02,7.87,3.25,11.15
			c1.42,2.15,2.92,4.24,4.39,6.36c0.45,0.66,0.9,1.32,1.51,2.23h-2.05c-12.29,0-24.57,0.22-36.85-0.11c-4.54-0.34-9,1.34-12.18,4.59
			c-8.41,8.08-17.28,15.69-25.96,23.49L374.01,286.85z M530.34,165.09l-0.29,0.04l-7.91,37.75c5.21-2.98,10.22-5.88,15.27-8.71
			c1.02-0.57,1.16-1.13,0.83-2.23c-2.21-7.33-4.34-14.69-6.49-22.04c-0.47-1.59-0.95-3.19-1.42-4.8L530.34,165.09z M442.84,155.94
			v28.5l14.33-13.5L442.84,155.94z"/>
		<path id="Pfad_2" class="st0" d="M12.06,101.59c10.75,0.02,21.49,0.04,32.24,0.05c5.75,0,11.51,0,17.34,0
			c0.05,0.23,0.05,0.46,0.03,0.69c-2.6,8.02-3.08,16.56-1.4,24.82c3.45,22.32,8.74,44.25,13.83,66.23c0.52,2.23,1.07,4.47,1.61,6.7
			c0,0.03,0.07,0.03,0.34,0.15l22.47-93.41l0.32,0.05l22.7,91.21l0.37-0.04c1.22-6.83,2.49-13.65,3.66-20.49
			c2.74-15.98,5.44-31.96,8.12-47.94c0.79-4.7,1.39-9.43,2.11-14.14c0.78-4.53-0.85-9.14-4.31-12.17c-0.52-0.39-1.09-0.72-1.68-0.99
			l0.52-0.59h51.59c-0.2,0.32-0.43,0.64-0.67,0.93c-8.52,9.03-14.06,20.47-15.86,32.76c-4.66,27.2-9.39,54.39-14.02,81.6
			c-1.23,7.23-2.32,14.49-3.27,21.77c-0.81,6.41,0.87,12.89,4.69,18.1c1.79-1.59,3.61-2.98,5.12-4.64
			c3.57-4.26,5.91-9.42,6.76-14.92c3.44-16.51,6.96-33,10.38-49.51c1.54-7.4,2.96-14.82,4.36-22.25c0.94-4.9-1.38-9.85-5.76-12.25
			c-0.68-0.43-1.4-0.79-2.26-1.27l48.71-27.93c-0.38,2.86-0.64,5.39-1.07,7.89c-1.2,7.39-0.75,14.95,1.31,22.14
			c3.6,13.14,7.31,26.24,11.01,39.39l16.79-1.54c0,3.5,0.03,6.77-0.05,10.04c0,0.32-0.75,0.78-1.22,0.91
			c-3.88,1.1-7.79,2.13-11.62,3.18c0.87,8.27,10.6,39.24,13.88,44.32c2.45-3.1,4.08-6.77,4.73-10.67c0.35-1.89,0.53-3.8,0.53-5.72
			c0.03-22.21,0-44.42,0.06-66.63c0.14-1.19-0.57-2.33-1.7-2.73c-5.16-2.54-10.26-5.2-15.37-7.81c-0.48-0.24-0.95-0.51-1.91-1.03
			l50.74-32.43l49.25,50.81l-29.02,27.32c0.59,0.32,1.05,0.58,1.52,0.82c5.74,2.86,11.47,5.72,17.23,8.51
			c1.09,0.37,1.77,1.45,1.65,2.59c-0.07,8.55,0,17.11-0.06,25.66c-0.13,2.92,0.66,5.81,2.26,8.27c2.69,3.91,5.64,7.63,8.46,11.41
			c-0.29,0.05-0.57,0.07-0.86,0.08c-8.67,0-17.33,0.02-25.99-0.03c-0.8,0.03-1.6-0.21-2.25-0.69c-5.82-4.7-9.75-11.32-11.09-18.68
			c-0.35-3.82-0.42-7.66-0.18-11.49c0.11-1.09-0.46-2.13-1.44-2.62c-4.07-2.48-8.07-5.09-12.1-7.63c-0.45-0.28-0.92-0.52-1.63-0.93
			v1.99c0,7.29,0.06,14.59-0.03,21.88c-0.1,3.03,0.75,6.02,2.43,8.55c1.78,2.63,3.74,5.13,5.63,7.69c0.41,0.56,0.86,1.1,1.43,1.84
			h-80.67c0.22-0.57,0.44-1.08,0.62-1.62c1.37-3.98,2.9-7.91,4.07-11.95c1.35-5.17,1.32-10.61-0.09-15.77
			c-1.08-4.52-2.36-9-3.62-13.76c-3.84,2.28-7.57,4.4-11.22,6.68c-4.49,2.55-8.54,5.8-12,9.64c-1.7,1.99-3.03,4.26-3.91,6.72
			c-0.97,3.29-0.23,6.84,1.96,9.48c1.98,2.67,4.36,5.05,6.59,7.53c0.91,1.01,1.91,1.94,3,3.06h-90.99c0.34-2.11,0.57-4.22,1.02-6.28
			c0.89-5.92,0.64-11.96-0.76-17.78c-1.78-10.86-3.66-21.71-5.5-32.56c-0.04-0.26-0.21-0.49-0.45-0.59
			c-0.25,0.97-0.53,1.94-0.74,2.92c-2.4,10.79-4.84,21.58-7.16,32.38c-1.5,6.11-1.16,12.53,0.99,18.44c0.38,1.13,0.7,2.29,0.95,3.46
			H43.02c1.05-1.11,2-2.3,3.13-3.28c5.13-4.25,7.3-11.11,5.54-17.53c-2.07-9.69-4.18-19.37-6.41-29.02
			c-5.09-22.08-10.17-44.17-15.47-66.2c-2.25-9.36-4.93-18.62-7.68-27.85c-0.82-2.19-2.05-4.21-3.61-5.95
			c-1.98-2.47-4.29-4.68-6.45-6.99L12.06,101.59z M198.46,168.13l-8.04,40.71c0.76-0.48,1.2-0.8,1.67-1.06
			c4.56-2.47,9.07-5.04,13.72-7.34c1.4-0.69,1.55-1.3,1.17-2.6c-2.66-9.3-5.27-18.62-7.91-27.93
			C198.95,169.47,198.78,169.04,198.46,168.13z M282.11,186.87l16.25-13.27l-16.25-15.89V186.87z"/>
		<path id="Pfad_3" class="st0" d="M310.18,15.05c2.83,0.54,5.69,0.95,8.48,1.66c8.72,1.87,16.45,6.88,21.73,14.08
			c10.62,15.34,6.8,36.39-8.54,47.01c-0.23,0.16-0.45,0.31-0.68,0.46c-9.09,6.01-19.95,8.73-30.79,7.72
			c-9.09-0.37-17.88-3.38-25.28-8.68c-14.63-10.4-18.06-30.68-7.66-45.31c1.9-2.67,4.19-5.04,6.79-7.02
			c6.82-5.41,15.06-8.75,23.72-9.62c0.36-0.07,0.7-0.18,1.04-0.32L310.18,15.05z M335.69,52.75c-0.43-3.85-1.06-7.68-1.88-11.47
			c-3.24-12.14-10.63-20.31-23.21-23.11c-4.25-0.9-8.62-1.06-12.92-0.47c-10.48,0.69-19.53,7.58-22.98,17.51
			c-2.46,6.68-2.92,13.93-1.32,20.87c1.32,7.92,5.34,15.13,11.38,20.42c7.9,6.47,18.37,8.86,28.29,6.46
			c8.36-1.26,15.52-6.65,19.05-14.34C334.31,63.6,335.53,58.22,335.69,52.75L335.69,52.75z"/>
		<path id="Pfad_4" class="st0" d="M197.04,21v-2.73h24.5c0.72,2.57,0.57,2.82-2,3.03c-4.6,0.08-8.81,2.61-11.04,6.64
			c-3.25,5.9-6.45,11.82-9.61,17.76c-0.18,0.43-0.17,0.92,0.02,1.35c4.03,8.08,8.09,16.15,12.18,24.2c0.02,0.04,0.08,0.07,0.27,0.21
			c0.58-1.1,1.2-2.16,1.73-3.26c6.42-13.31,12.83-26.62,19.24-39.94c0.12-0.25,0.23-0.5,0.34-0.75c1.4-3.33,0.8-4.58-2.73-5.4
			c-1.6-0.36-3.23-0.63-4.86-0.8c-2.51-0.28-2.51-0.24-2.07-3.04h29.77v2.74c-1.23,0.17-2.46,0.38-3.7,0.52
			c-3.91,0.33-7.39,2.61-9.24,6.07c-3.02,5.4-6.02,10.81-8.85,16.31c-6.74,13.09-13.43,26.21-19.96,39.42
			c-0.67,1.6-2.36,2.52-4.07,2.23c-1.86,0.03-1.89-1.4-2.38-2.41c-4-8.21-7.95-16.46-12.08-25.02c-1,1.91-1.91,3.55-2.75,5.23
			c-3.43,6.91-6.92,13.8-10.21,20.78c-0.8,1.7-2,1.27-3.23,1.38c-1.03,0.21-2.06-0.38-2.4-1.38c-8.96-18.35-18.03-36.64-26.97-55
			c-1.9-4.84-6.59-7.99-11.79-7.93c-0.51-0.04-1.01-0.12-1.51-0.23v-2.73h32.04v2.75c-1.45,0.18-2.95,0.36-4.45,0.56
			c-0.54,0.07-1.08,0.18-1.61,0.32c-2.42,0.66-2.99,1.68-1.95,3.99c1.8,3.99,3.68,7.95,5.62,11.87
			c5.31,10.75,10.64,21.48,16.01,32.21c0.24,0.47,0.54,0.92,0.92,1.55c0.33-0.56,0.6-0.95,0.81-1.35
			c2.72-5.43,5.46-10.86,8.12-16.33c0.31-0.7,0.34-1.49,0.06-2.2c-3.77-7.67-7.58-15.31-11.44-22.92c-1.16-2.76-3.24-5.03-5.9-6.41
			c-1.58-0.6-3.19-1.11-4.83-1.53v-2.52h25.96v2.66c-0.02,0.02-0.1,0.14-0.18,0.15c-3.43,0.43-5.06,3.08-3.12,6.8
			c1.94,3.71,3.57,7.51,5.35,11.27c0.18,0.38,0.42,0.73,0.83,1.44c1.98-4.58,4.02-8.81,5.63-13.2c0.98-2.22-0.03-4.81-2.25-5.79
			c-0.43-0.19-0.9-0.31-1.37-0.35C197.59,21.18,197.34,21.09,197.04,21z"/>
		<path id="Pfad_5" class="st0" d="M519.81,84.75v-2.77c2.29-0.26,4.52-0.42,6.72-0.79c4.1-0.68,5.4-2.2,5.72-6.33
			c0.04-0.55,0.03-1.1,0.03-1.64c0-14.53,0-29.05,0-43.58c-0.02-1.42-0.12-2.85-0.32-4.26c-0.06-2.3-1.84-4.2-4.13-4.4
			c-2.2-0.38-4.45-0.57-6.78-0.86v-2.7c0.36-0.03,0.64-0.07,0.89-0.07c14.31,0,28.61-0.15,42.92,0.12
			c9.13-0.11,18.17,1.84,26.43,5.72c21.04,10.57,19.69,36.17,6.09,48.16c-7,6.07-15.59,10.01-24.75,11.36
			c-6.81,1.1-13.68,1.75-20.57,1.94c-10.17,0.32-20.39,0.08-30.58,0.08L519.81,84.75z M543.75,48.73h-0.11c0,7.4,0,14.8,0,22.2
			c0,6.02,2.5,9.12,8.51,9.54c4.8,0.36,9.62,0.24,14.4-0.34c14.53-1.91,25.62-11.34,27.48-26.74c1.54-10.89-3.71-21.63-13.26-27.1
			c-4.56-2.53-9.57-4.16-14.74-4.82c-6.02-0.89-12.14-0.94-18.18-0.13c-3.13,0.47-4.03,1.4-4.08,4.55
			c-0.1,7.61-0.04,15.23-0.04,22.84L543.75,48.73z"/>
		<path id="Pfad_6" class="st0" d="M406.54,50.91c3.57,1.82,6.11,5.17,6.89,9.1c2.36,7.61,6.46,14.58,11.96,20.35
			c6.18,6.78,13.46,12.48,21.52,16.85c1.35,0.74,1.83,1.55,1.3,3.4c-2.5-0.17-4.98-0.47-7.45-0.9c-7.74-2.01-14.75-6.16-20.23-11.99
			c-7.81-7.73-14.32-16.66-19.3-26.45c-2.04-4.46-6.55-7.26-11.44-7.12c-1.79,0-3.59,0-5.54,0c0,4.21-0.03,8.27,0,12.3
			c0.03,2.74,0.07,5.48,0.26,8.2c0.03,2.43,1.91,4.43,4.34,4.6c1.94,0.32,3.89,0.55,5.97,0.84v2.65h-31.62v-2.65
			c2.08-0.28,4.13-0.52,6.17-0.85c2.47-0.2,4.39-2.24,4.43-4.72c0.07-0.76,0.23-1.53,0.23-2.29c0-14.86,0-29.72-0.06-44.58
			c-0.03-5.7-1.02-6.72-6.6-7.53c-0.49-0.07-0.98-0.1-1.47-0.13c-2.57-0.15-2.57-0.14-2.15-2.92c0.34-0.03,0.71-0.09,1.08-0.09
			c11.3,0,22.6-0.07,33.89,0.1c5.12-0.12,10.19,1.08,14.71,3.5c7.25,4.04,9.85,13.2,5.81,20.45c-1.16,2.08-2.8,3.85-4.78,5.18
			C411.94,47.88,409.27,49.3,406.54,50.91z M384.22,50.5c3.64,0.18,7.28,0.15,10.91-0.06c8.94-1,14.03-5.98,14.51-14.13
			c0.67-4.62-1.15-9.25-4.8-12.16c-5.3-3.68-11.93-4.87-18.18-3.27c-1.3,0.19-2.28,1.29-2.32,2.6c-0.09,0.76-0.13,1.53-0.13,2.29
			c0,7.72,0,15.44,0,23.16L384.22,50.5z"/>
		<path id="Pfad_7" class="st0" d="M507.69,67.86l2.89,0.61c-1.18,4.92-2.29,9.7-3.5,14.46c-0.1,0.39-0.78,0.7-1.24,0.93
			c-0.32,0.07-0.65,0.08-0.98,0.03h-58.66v-1.84c1.96-0.28,3.96-0.49,5.93-0.88c2.93-0.58,3.74-1.47,4.21-4.45
			c0.17-1.03,0.26-2.07,0.26-3.11c0.02-15.02,0.02-30.05,0-45.07c-0.02-1.37-0.12-2.73-0.3-4.09c0.08-2.09-1.51-3.88-3.6-4.05
			c-2.67-0.59-5.37-1.04-8.24-1.59c-0.02-0.38-0.04-0.89-0.07-1.52h32.13c0.03,0.52,0.06,1.02,0.08,1.39
			c-2.41,0.67-4.67,1.29-6.92,1.93c-1.55,0.37-2.69,1.68-2.86,3.26c-0.24,1.46-0.37,2.93-0.39,4.41c-0.03,14.75-0.03,29.5,0,44.24
			c0,0.93,0,1.87,0.1,2.79c0.35,3.66,1.62,5.18,5.28,5.53c3.54,0.34,7.11,0.38,10.67,0.37c4.65,0,9.31-0.08,13.96-0.32
			c2.81-0.13,5.36-1.72,6.71-4.19C504.76,73.93,506.1,70.99,507.69,67.86z"/>
		<path id="Pfad_8" class="st0" d="M295.64,44c3.03-0.11,6.02,0.72,8.55,2.38c3.79,2.37,4.94,7.36,2.58,11.15
			c-0.55,0.88-1.26,1.64-2.09,2.25c-5.69,3.82-13.12,3.78-18.77-0.08c-3.51-2.78-4.09-7.88-1.31-11.38c0.6-0.76,1.33-1.4,2.16-1.9
			C289.41,44.74,292.5,43.9,295.64,44z M302.51,53.83c-0.28-1.6-0.71-3.17-1.27-4.7c-1.07-2.57-3.69-4.15-6.47-3.87
			c-2.5,0-4.72,1.59-5.53,3.95c-1.43,3.31-0.84,7.15,1.52,9.88c1.55,1.95,4.11,2.79,6.51,2.15
			C300.57,60.34,302.77,57.24,302.51,53.83z"/>
		<path id="Pfad_9" class="st0" d="M309.65,44.4h16.2l0.45,4.17l-2.16,0.28c-0.59-2.33-2.95-3.75-5.28-3.16
			c-0.01,0-0.03,0.01-0.04,0.01c-0.54,0.14-0.98,0.55-1.16,1.08c-0.12,1.85-0.05,3.71-0.05,5.82c1.99-0.32,4.22,0.87,5.35-1.8
			c0.09-0.2,0.77-0.16,1.27-0.24v5.38l-0.37,0.34c-0.67-0.78-1.46-1.45-2.35-1.97c-1.22-0.3-2.48-0.45-3.74-0.44
			c-0.09,2.03-0.06,4.07,0.1,6.1c0.06,0.47,1.45,0.76,2.23,1.15c0.32,0.17,0.64,0.37,0.95,0.56c-0.35,0.16-0.69,0.45-1.04,0.46
			c-3.13,0.04-6.25,0.04-9.38,0c-0.37-0.08-0.73-0.23-1.06-0.43c0.32-0.2,0.6-0.54,0.92-0.57c1.49-0.13,2.08-0.86,2.06-2.37
			c-0.06-3.62-0.04-7.24,0-10.86c0.02-1.42-0.38-2.33-1.97-2.43c-0.39-0.03-0.75-0.4-1.13-0.61L309.65,44.4z"/>
	</g>
</g>
<g id="Gruppe_3" transform="translate(-1292.703 -1547.167)">
	<path id="Pfad_10" class="st0" d="M2032.53,1802.71c1.45-1.03,2.81-2.19,4.07-3.45c1.02-1.03,1.94-2.15,2.77-3.34
		c0.8-1.05,1.26-2.33,1.3-3.65c0-0.56-0.02-1.74-0.05-3.55c-0.03-1.81-0.07-3.98-0.1-6.52c-0.04-2.54-0.07-5.33-0.1-8.35
		c-0.03-3.02-0.05-6.1-0.05-9.24c-0.14-7.31-0.25-15.38-0.32-24.22c-1.39-2.02-2.73-3.84-4.02-5.48c-1.29-1.64-2.56-3.39-3.81-5.27
		h41.76l0.1,22.76l-4.28-12h-14.82v17.12h13.35v13.35l-2.71-2.71h-10.65v24.01c0.06,1.99,0.76,3.91,1.98,5.48
		c1.35,1.88,2.93,3.58,4.7,5.06L2032.53,1802.71z"/>
	<path id="Pfad_11" class="st0" d="M2076.69,1802.71c0.84-1.46,1.6-2.92,2.3-4.38c0.56-1.25,1.08-2.61,1.57-4.07
		c0.45-1.28,0.7-2.61,0.73-3.97v-44.89c0-1.04-0.05-2.3-0.16-3.76c-0.11-1.51-0.34-3.01-0.68-4.49c-0.33-1.47-0.8-2.9-1.41-4.28
		c-0.53-1.24-1.33-2.35-2.35-3.24h25.16c-1.03,0.98-1.88,2.12-2.5,3.39c-0.7,1.37-1.26,2.8-1.67,4.28
		c-0.41,1.46-0.73,2.95-0.95,4.45c-0.19,1.24-0.3,2.5-0.32,3.76c0,1.95,0.04,3.9,0.1,5.85c0.07,1.95,0.12,4.49,0.16,7.63
		c0.03,3.13,0.09,7.17,0.16,12.11s0.1,11.34,0.1,19.21c0.05,1.39,0.43,2.75,1.1,3.97c0.71,1.42,1.53,2.78,2.45,4.07
		c1.11,1.55,2.33,3.01,3.65,4.38L2076.69,1802.71z"/>
	<path id="Pfad_12" class="st0" d="M2111.14,1802.7c2.36-2.16,4.28-4.77,5.64-7.67c0.68-1.34,1.03-2.83,1.04-4.33v-46.04h-1.04
		c-0.64,0-1.48,0.05-2.54,0.16c-1.14,0.12-2.27,0.38-3.34,0.78c-1.19,0.44-2.3,1.08-3.29,1.88c-1.12,0.93-2.01,2.11-2.61,3.44
		v-12.53c0-2.78,0.03-5.77,0.1-8.98c0.42,0.07,2.23,0.1,5.43,0.1h37.69v21.4c-0.63-1.06-1.49-1.96-2.5-2.66
		c-1.1-0.79-2.3-1.46-3.55-1.98c-1.21-0.51-2.47-0.91-3.76-1.2c-1.03-0.25-2.08-0.39-3.13-0.42h-1.57v43.44
		c-0.04,2.12,0.39,4.22,1.25,6.16c0.74,1.65,1.68,3.19,2.82,4.59c1.24,1.45,2.64,2.74,4.17,3.86L2111.14,1802.7z"/>
	<path id="Pfad_13" class="st0" d="M2184.01,1802.7c0.58-0.5,1.09-1.08,1.51-1.72c0.43-0.68,0.79-1.4,1.1-2.14
		c0.37-0.96,0.55-1.99,0.52-3.03v-31.53l-20.35-15.03c0.21,7.93,0.42,15.1,0.64,21.51c0.07,2.78,0.14,5.53,0.21,8.25
		c0.07,2.71,0.14,5.18,0.21,7.41c0.07,2.23,0.12,4.14,0.16,5.74c0.04,1.6,0.05,2.64,0.05,3.13c-0.02,1.12,0.17,2.24,0.58,3.29
		c0.33,0.84,0.76,1.63,1.31,2.35c0.52,0.73,1.2,1.34,1.98,1.77h-20.15l2.5-7.41c0-1.74-0.02-3.88-0.05-6.42
		c-0.03-2.54-0.07-5.28-0.1-8.2c-0.04-2.92-0.07-5.95-0.1-9.08c-0.03-3.13-0.05-6.19-0.05-9.19c-0.07-7.03-0.14-14.4-0.21-22.13
		l-10.75-10.65h22.65l22.03,20.15v-14.52c-0.07-0.71-0.38-1.37-0.89-1.88c-0.62-0.72-1.3-1.38-2.03-1.98
		c-0.92-0.83-1.9-1.6-2.92-2.3h18.79v14.31c0,2.37-0.02,5.39-0.05,9.08s-0.09,7.59-0.16,11.69c-0.07,4.11-0.12,8.18-0.16,12.21
		c-0.03,4.04-0.05,7.59-0.05,10.65v5.32c-0.02,0.97,0.01,1.95,0.1,2.92c0.09,0.71,0.26,1.42,0.52,2.09c0.28,0.76,0.62,1.5,1.04,2.19
		c0.42,0.7,0.84,1.34,1.25,1.93c0.31,0.5,0.74,0.91,1.25,1.2L2184.01,1802.7z"/>
	<path id="Pfad_14" class="st0" d="M2204.36,1802.71c1.45-1.03,2.81-2.19,4.07-3.45c1.02-1.03,1.94-2.15,2.77-3.34
		c0.8-1.05,1.26-2.33,1.31-3.65c0-0.56-0.02-1.74-0.05-3.55c-0.04-1.81-0.07-3.98-0.1-6.52c-0.03-2.54-0.07-5.33-0.1-8.35
		c-0.04-3.02-0.05-6.1-0.05-9.24c-0.14-7.31-0.25-15.38-0.32-24.22c-1.39-2.02-2.73-3.84-4.02-5.48c-1.29-1.64-2.56-3.39-3.81-5.27
		h41.76l0.1,22.76l-4.28-12h-14.82v17.12h13.35v13.35l-2.71-2.71h-10.65v22.96c-0.02,0.15,0.08,0.29,0.23,0.32
		c0.03,0.01,0.06,0.01,0.09,0c2.78,0,5.24-0.07,7.36-0.21c1.93-0.11,3.85-0.37,5.74-0.78c1.58-0.34,3.11-0.9,4.54-1.67
		c1.38-0.77,2.65-1.74,3.76-2.86v16.81L2204.36,1802.71z"/>
	<path id="Pfad_15" class="st0" d="M2260.53,1735.27c0.06-0.05,0.1-0.13,0.1-0.21c0-0.08,0.04-0.16,0.1-0.21
		c0.01-0.08,0.04-0.16,0.1-0.21c-0.01-0.44-0.17-0.87-0.47-1.2c-0.31-0.38-0.71-0.82-1.2-1.31h28.5c-0.74,0.57-1.17,1.46-1.15,2.4
		c0.09,0.43,0.23,0.85,0.42,1.25l10.86,20.98h-14.31c0.35-0.42,0.7-0.8,1.04-1.15c0.29-0.24,0.48-0.58,0.52-0.95l-0.1-0.42
		c-0.69-2.2-1.65-4.3-2.86-6.26c-0.85-1.36-1.97-2.54-3.29-3.45c-1.15-0.75-2.45-1.23-3.81-1.41c-1.44-0.18-2.88-0.27-4.33-0.26
		h-0.42l-5.11,12.32l32.99,18.79l-12.32,25.37l-0.21,0.42c-0.06,0.05-0.1,0.13-0.1,0.21c0.01,0.44,0.18,0.87,0.47,1.2
		c0.38,0.45,0.78,0.89,1.2,1.3h-28.5c0.74-0.57,1.17-1.46,1.15-2.4c-0.09-0.43-0.23-0.85-0.42-1.25l-10.86-20.98h14.31
		c-0.35,0.42-0.7,0.8-1.04,1.15c-0.29,0.24-0.48,0.58-0.52,0.95l0.1,0.42c0.69,2.2,1.65,4.3,2.86,6.26
		c0.85,1.36,1.96,2.54,3.29,3.44c1.15,0.75,2.45,1.24,3.81,1.41c1.44,0.18,2.88,0.27,4.33,0.26h0.42l5.11-12.32l-32.99-18.79
		L2260.53,1735.27z"/>
	<path id="Pfad_16" class="st0" d="M2310.11,1735.27c0.06-0.05,0.1-0.13,0.1-0.21c0-0.08,0.04-0.16,0.1-0.21
		c0-0.08,0.04-0.16,0.1-0.21c-0.01-0.44-0.18-0.87-0.47-1.2c-0.31-0.38-0.71-0.82-1.2-1.31h28.5c-0.74,0.57-1.17,1.46-1.15,2.4
		c0.09,0.43,0.23,0.85,0.42,1.25l10.86,20.98h-14.31c0.35-0.42,0.7-0.8,1.05-1.15c0.29-0.24,0.48-0.58,0.52-0.95l-0.1-0.42
		c-0.69-2.2-1.65-4.3-2.86-6.26c-0.85-1.36-1.97-2.54-3.29-3.45c-1.15-0.75-2.45-1.23-3.81-1.41c-1.44-0.18-2.88-0.27-4.33-0.26
		h-0.42l-5.11,12.32l32.99,18.79l-12.32,25.37l-0.21,0.42c-0.06,0.05-0.1,0.13-0.1,0.21c0.01,0.44,0.18,0.87,0.47,1.2
		c0.38,0.45,0.78,0.89,1.2,1.3h-28.5c0.74-0.57,1.17-1.46,1.15-2.4c-0.09-0.43-0.23-0.85-0.42-1.25l-10.86-20.98h14.31
		c-0.35,0.42-0.7,0.81-1.05,1.15c-0.29,0.24-0.48,0.58-0.52,0.95l0.1,0.42c0.69,2.2,1.65,4.3,2.86,6.26
		c0.85,1.36,1.96,2.54,3.29,3.44c1.15,0.75,2.45,1.24,3.81,1.41c1.44,0.18,2.88,0.27,4.33,0.26h0.42l5.11-12.32l-32.99-18.79
		L2310.11,1735.27z"/>
</g>
</svg>
